<svg xmlns="http://www.w3.org/2000/svg" viewBox="0 0 64 64">
  <rect width="64" height="64" rx="14" fill="#0f172a"/>
  <path d="M12 43 24 37l16 6 12-6v14L40 57l-16-6-12 6z" fill="#e2e8f0"/>
  <path d="M24 37v14M40 43v14" stroke="#94a3b8" stroke-width="2" stroke-linecap="round"/>
  <path d="M32 7c-8.3 0-15 6.5-15 14.6 0 10.6 15 27.4 15 27.4s15-16.8 15-27.4C47 13.5 40.3 7 32 7z" fill="#2563eb"/>
  <path d="M32 7c-8.3 0-15 6.5-15 14.6 0 10.6 15 27.4 15 27.4s15-16.8 15-27.4C47 13.5 40.3 7 32 7z" fill="none" stroke="#bfdbfe" stroke-width="2"/>
  <circle cx="32" cy="22" r="6" fill="#f8fafc"/>
  <circle cx="32" cy="22" r="2.5" fill="#16a34a"/>
</svg>
